<!-- Generated by IcoMoon.io -->
<svg version="1.1" xmlns="http://www.w3.org/2000/svg" width="75" height="32" viewBox="0 0 75 32">
<path fill="#f4f4fd" d="M1.143 0.143h73.143c0.552 0 1 0.448 1 1v29.714c0 0.552-0.448 1-1 1h-73.143c-0.552 0-1-0.448-1-1v-29.714c0-0.552 0.448-1 1-1z"></path>
<path fill="#4d5ae5" d="M46.842 9.442c-0.036-0.11-0.131-0.19-0.246-0.207l-1.091-0.159-0.489-0.989c-0.103-0.208-0.444-0.208-0.547 0l-0.489 0.989-1.092 0.159c-0.115 0.017-0.21 0.097-0.246 0.207s-0.006 0.232 0.077 0.312l0.79 0.77-0.187 1.087c-0.019 0.114 0.027 0.23 0.121 0.298 0.095 0.069 0.219 0.077 0.321 0.023l0.977-0.514 0.977 0.514c0.044 0.023 0.093 0.035 0.142 0.035 0.063 0 0.126-0.020 0.179-0.058 0.094-0.068 0.141-0.184 0.121-0.298l-0.186-1.087 0.79-0.77c0.083-0.081 0.113-0.202 0.077-0.312zM45.435 10.201c-0.071 0.070-0.105 0.171-0.087 0.27l0.109 0.637-0.572-0.3c-0.045-0.024-0.093-0.035-0.142-0.035s-0.097 0.012-0.142 0.035l-0.572 0.3 0.109-0.637c0.017-0.099-0.016-0.2-0.087-0.27l-0.463-0.451 0.639-0.093c0.099-0.014 0.185-0.077 0.229-0.167l0.286-0.579 0.286 0.579c0.045 0.090 0.13 0.152 0.23 0.167l0.639 0.093-0.462 0.451z"></path>
<path fill="#4d5ae5" d="M43.505 18.584h-0.609v0.61h0.609v-0.61z"></path>
<path fill="#4d5ae5" d="M43.505 19.803h-0.609v0.61h0.609v-0.61z"></path>
<path fill="#4d5ae5" d="M44.114 19.194h-0.609v0.61h0.609v-0.61z"></path>
<path fill="#4d5ae5" d="M42.895 19.194h-0.61v0.61h0.61v-0.61z"></path>
<path fill="#4d5ae5" d="M41.371 21.937h-0.609v0.61h0.609v-0.61z"></path>
<path fill="#4d5ae5" d="M41.371 23.156h-0.609v0.61h0.609v-0.61z"></path>
<path fill="#4d5ae5" d="M41.981 22.546h-0.61v0.61h0.61v-0.61z"></path>
<path fill="#4d5ae5" d="M40.762 22.546h-0.61v0.61h0.61v-0.61z"></path>
<path fill="#4d5ae5" d="M37.714 20.718h-0.609v0.61h0.609v-0.61z"></path>
<path fill="#4d5ae5" d="M37.714 21.937h-0.609v0.61h0.609v-0.61z"></path>
<path fill="#4d5ae5" d="M38.324 21.327h-0.609v0.61h0.609v-0.61z"></path>
<path fill="#4d5ae5" d="M37.105 21.327h-0.61v0.61h0.61v-0.61z"></path>
<path fill="#4d5ae5" d="M31.924 10.355h-0.609v0.61h0.609v-0.61z"></path>
<path fill="#4d5ae5" d="M31.924 11.575h-0.609v0.61h0.609v-0.61z"></path>
<path fill="#4d5ae5" d="M32.533 10.965h-0.609v0.61h0.609v-0.61z"></path>
<path fill="#4d5ae5" d="M31.314 10.965h-0.61v0.61h0.61v-0.61z"></path>
<path fill="#2e2f42" d="M42.694 14.948c-0.164-0.222-0.405-0.364-0.679-0.403-0.275-0.039-0.546 0.033-0.766 0.201l-0.715 0.549-1.085 0.81-0.776-0.309c1.383-0.621 2.351-2.005 2.351-3.611 0-2.185-1.784-3.962-3.978-3.962s-3.978 1.777-3.978 3.962c0 0.792 0.237 1.528 0.64 2.148l-1.579-0.014c-0.001 0-0.002 0-0.003 0-0.005 0-0.009 0.002-0.013 0.003-0.030 0.001-0.060 0.007-0.089 0.018-0.007 0.003-0.015 0.004-0.022 0.008-0.003 0.002-0.007 0.002-0.011 0.004l-1.847 0.912c-0 0-0.001 0-0.001 0l-1.082 0.52c-0.012 0.005-0.024 0.012-0.036 0.020-0.431 0.287-0.578 0.851-0.342 1.312 0.126 0.245 0.34 0.425 0.603 0.508 0.101 0.032 0.205 0.047 0.308 0.047 0.165 0 0.329-0.041 0.479-0.121l0.793-0.422 1.294-0.668 0.775-0.005-3.11 3.095c-0 0-0.001 0-0.001 0.001l-0.765 0.762c-0.181 0.18-0.28 0.418-0.28 0.673s0.099 0.493 0.28 0.674c0.185 0.185 0.43 0.277 0.674 0.277s0.488-0.093 0.675-0.277l0.751-0.748 0.995-0.743 0.515 0.513-1.007 1.002c-0 0-0.001 0-0.001 0.001l-0.765 0.762c-0.181 0.18-0.28 0.418-0.28 0.673s0.099 0.493 0.28 0.674c0.186 0.185 0.43 0.277 0.674 0.277s0.489-0.093 0.674-0.277l1.99-1.981c0-0 0-0.001 0.001-0.001l0.577-0.571-0.002-0.002c0.004-0.004 0.009-0.005 0.013-0.009l2.952-3.233 1.983 0.282c0.014 0.002 0.029 0.003 0.043 0.003 0.037 0 0.073-0.009 0.107-0.022 0.010-0.004 0.019-0.009 0.028-0.013 0.011-0.006 0.023-0.009 0.033-0.015l1.836-1.219c0.007-0.005 0.010-0.012 0.017-0.017s0.016-0.008 0.023-0.015l0.727-0.681c0.378-0.354 0.43-0.934 0.121-1.35zM29.789 17.012c-0.099 0.053-0.211 0.064-0.319 0.030-0.107-0.033-0.193-0.106-0.244-0.204-0.092-0.179-0.039-0.397 0.122-0.515l0.751-0.361 0.181 0.528 0.076 0.222-0.567 0.301zM31.787 15.967l-0.885 0.457-0.251-0.733 1.158-0.572-0.023 0.848zM40.415 12.184c0 0.525-0.125 1.020-0.342 1.463l-2.389-1.085c-0.025-0.328-0.195-0.614-0.45-0.793l0.837-2.777c1.359 0.432 2.345 1.7 2.345 3.193zM33.679 12.184c0-1.848 1.511-3.352 3.368-3.352 0.145 0 0.286 0.012 0.426 0.030l-0.818 2.716c-0.011-0-0.021-0.003-0.033-0.003-0.59 0-1.070 0.479-1.070 1.067s0.48 1.067 1.070 1.067c0.397 0 0.74-0.219 0.925-0.54l2.207 1.003c-0.614 0.826-1.597 1.366-2.707 1.366-1.857 0-3.368-1.504-3.368-3.352zM37.083 12.641c0 0.252-0.207 0.457-0.461 0.457s-0.461-0.205-0.461-0.457 0.207-0.457 0.461-0.457c0.254 0 0.461 0.205 0.461 0.457zM29.98 21.226c-0.135 0.134-0.354 0.134-0.488 0-0.065-0.065-0.101-0.151-0.101-0.242s0.036-0.177 0.101-0.241l0.55-0.548 0.486 0.484-0.548 0.546zM31.816 23.36c-0.135 0.134-0.354 0.134-0.488 0-0.065-0.065-0.101-0.151-0.101-0.242s0.035-0.176 0.101-0.241l0.55-0.548 0.487 0.484-0.548 0.546zM33.806 21.378c-0 0-0.001 0-0.001 0.001l-1.009 1.006-0.487-0.484 1.008-1.003c0 0 0 0 0-0s0.001-0 0.001-0.001c0.023-0.023 0.037-0.050 0.051-0.077 0.004-0.008 0.012-0.015 0.015-0.023 0.009-0.023 0.011-0.049 0.015-0.073 0.002-0.014 0.008-0.027 0.008-0.041 0-0.020-0.007-0.040-0.012-0.060-0.004-0.018-0.004-0.037-0.011-0.055-0.012-0.029-0.031-0.054-0.052-0.079-0.006-0.007-0.008-0.015-0.014-0.022 0 0 0 0-0 0s-0-0.001-0.001-0.001l-0.918-0.914c-0.010-0.010-0.022-0.014-0.033-0.022-0.016-0.012-0.032-0.024-0.050-0.033s-0.035-0.014-0.053-0.019c-0.019-0.006-0.038-0.010-0.059-0.011-0.019-0.001-0.036 0.001-0.055 0.003-0.020 0.002-0.039 0.005-0.059 0.012s-0.036 0.016-0.054 0.026c-0.011 0.006-0.024 0.009-0.035 0.016l-1.013 0.756-0.515-0.513 1.371-1.363 2.492 2.451-0.53 0.525zM37.702 17.368c-0.009-0.001-0.017 0.002-0.026 0.002-0.022-0.001-0.044 0-0.066 0.004-0.017 0.003-0.034 0.006-0.050 0.012-0.019 0.007-0.037 0.016-0.055 0.027s-0.033 0.021-0.047 0.035c-0.007 0.006-0.016 0.009-0.023 0.017l-2.685 2.94-2.473-2.432 1.619-1.61c0.119-0.119 0.12-0.312 0.001-0.431-0.060-0.060-0.139-0.090-0.218-0.089v-0l-1.268 0.008 0.016-0.919 1.774 0.015c0.723 0.739 1.731 1.2 2.847 1.2 0.25 0 0.494-0.026 0.731-0.070 0.023 0.018 0.045 0.037 0.074 0.049l1.377 0.549 0.087 0.433 0.102 0.506-1.716-0.244zM40.012 17.47l-0.179-0.89 0.827-0.617 0.217 0.287 0.325 0.431-1.189 0.789zM42.157 15.852l-0.479 0.449-0.532-0.706 0.475-0.364c0.089-0.068 0.2-0.096 0.31-0.082 0.111 0.016 0.208 0.073 0.275 0.162 0.124 0.167 0.103 0.399-0.049 0.541z"></path>
<path fill="#2e2f42" d="M36.344 17.454l-1.225-1.219c-0.119-0.119-0.311-0.119-0.43 0l-1.224 1.219c-0.057 0.058-0.089 0.135-0.089 0.216s0.032 0.159 0.089 0.216l1.224 1.219c0.059 0.059 0.137 0.089 0.215 0.089s0.156-0.030 0.215-0.089l1.225-1.219c0.057-0.057 0.090-0.135 0.090-0.216s-0.032-0.159-0.090-0.216zM34.905 18.459l-0.792-0.789 0.792-0.789 0.793 0.789-0.793 0.789z"></path>
<path fill="#2e2f42" d="M38.38 9.755l-0.147 0.592c0.041 0.010 0.993 0.258 0.993 1.228h0.609c0-1.153-0.952-1.695-1.455-1.82z"></path>
<path fill="#2e2f42" d="M39.835 12.184h-0.609v0.61h0.609v-0.61z"></path>
</svg>
