<!-- Generated by IcoMoon.io -->
<svg version="1.1" xmlns="http://www.w3.org/2000/svg" width="75" height="32" viewBox="0 0 75 32">
<path fill="#f4f4fd" d="M1.143 0.143h73.143c0.552 0 1 0.448 1 1v29.714c0 0.552-0.448 1-1 1h-73.143c-0.552 0-1-0.448-1-1v-29.714c0-0.552 0.448-1 1-1z"></path>
<path fill="#4d5ae5" d="M37.1 15.408h0.609v2.741h-0.609v-2.741z"></path>
<path fill="#4d5ae5" d="M39.537 16.627h0.609v1.523h-0.609v-1.523z"></path>
<path fill="#4d5ae5" d="M34.663 17.541h0.609v0.609h-0.609v-0.609z"></path>
<path fill="#4d5ae5" d="M32.836 17.236h0.609v0.914h-0.609v-0.914z"></path>
<path fill="#2e2f42" d="M29.485 23.023h14.621c0.505 0 0.914-0.409 0.914-0.914v-1.218c0-0.505-0.409-0.914-0.914-0.914h-0.305v-7.596l1.73-1.639c0.402 0.198 0.888 0.078 1.151-0.285s0.226-0.862-0.087-1.182c-0.313-0.32-0.812-0.368-1.18-0.113s-0.499 0.738-0.31 1.144l-1.304 1.236v-0.703c0-0.505-0.409-0.914-0.914-0.914h-12.184c-0.505 0-0.914 0.409-0.914 0.914v9.138h-0.305c-0.505 0-0.914 0.409-0.914 0.914v1.218c0 0.505 0.409 0.914 0.914 0.914zM45.934 9.621c0.168 0 0.305 0.136 0.305 0.305s-0.136 0.305-0.305 0.305c-0.168 0-0.305-0.136-0.305-0.305s0.136-0.305 0.305-0.305zM30.399 10.839c0-0.168 0.136-0.305 0.305-0.305h12.184c0.168 0 0.305 0.136 0.305 0.305v1.279l-0.609 0.579v-1.249c0-0.168-0.136-0.305-0.305-0.305h-10.966c-0.168 0-0.305 0.136-0.305 0.305v7.615c0 0.168 0.136 0.305 0.305 0.305h10.966c0.168 0 0.305-0.136 0.305-0.305v-5.528l0.609-0.577v7.019h-12.793v-9.138zM33.141 14.799c-0.412-0.001-0.774 0.273-0.884 0.671s0.060 0.819 0.415 1.029c0.354 0.21 0.806 0.157 1.102-0.129l1.059 0.531c0.123 0.062 0.272 0.033 0.364-0.070l2.251-2.532 2.213 1.658c0.119 0.089 0.285 0.079 0.392-0.022l1.923-1.822v4.646h-10.357v-7.006h10.357v1.52l-2.155 2.041-2.231-1.673c-0.127-0.095-0.305-0.077-0.41 0.041l-2.282 2.567-0.853-0.427c0.006-0.037 0.010-0.073 0.012-0.111 0-0.505-0.409-0.914-0.914-0.914zM33.445 15.713c0 0.168-0.137 0.305-0.305 0.305s-0.305-0.136-0.305-0.305 0.136-0.305 0.305-0.305c0.168 0 0.305 0.136 0.305 0.305zM35.273 20.587h3.046v0.305c0 0.168-0.136 0.305-0.305 0.305h-2.437c-0.168 0-0.305-0.136-0.305-0.305v-0.305zM29.181 20.891c0-0.168 0.137-0.305 0.305-0.305h5.178v0.305c0 0.505 0.409 0.914 0.914 0.914h2.437c0.505 0 0.914-0.409 0.914-0.914v-0.305h5.178c0.168 0 0.305 0.136 0.305 0.305v1.218c0 0.168-0.137 0.305-0.305 0.305h-14.621c-0.168 0-0.305-0.136-0.305-0.305v-1.218z"></path>
</svg>
